<?xml version="1.0" standalone="no"?><!DOCTYPE svg PUBLIC "-//W3C//DTD SVG 1.1//EN" "http://www.w3.org/Graphics/SVG/1.1/DTD/svg11.dtd"><svg t="1512959775732" class="icon" style="" viewBox="0 0 1024 1024" version="1.1" xmlns="http://www.w3.org/2000/svg" p-id="30158" xmlns:xlink="http://www.w3.org/1999/xlink" width="200" height="200"><defs><style type="text/css"></style></defs><path d="M810.706661 817.807894c0 15.824407-3.744277 27.300786-11.253298 34.382065-11.250228 10.414187-28.947286 10.191106-30.841426 9.987469H627.788631V671.569252c0.203638-4.799306-0.812505-23.150256-17.903765-40.422641-19.99745-20.629853-53.747111-31.04711-100.214423-31.04711-47.078225 0-81.46029 10.211573-101.437273 30.619368-16.479323 16.682961-17.720593 34.178427-17.720594 38.32691v193.130625H238.237451c-16.888645 0-22.096251-6.042623-23.76424-7.91425-8.118911-8.951883-7.91425-26.447349-7.283893-31.878034l0.203638-1.670036V500.514411c0-15.419178-12.694113-27.910677-28.318976-27.910676h-12.511965L509.263168 171.161265l349.149005 300.404837-20.201088 0.630357c-15.626909 0.407276-27.933189 13.325493-27.504424 28.745694v316.865741z m-230.401484 44.36851H438.220135V670.105924l0.204661-0.63138c0.426719-1.240247 1.464351-3.337002 3.743254-5.63637 4.801353-5.003967 21.26021-16.437367 67.502393-16.437368 39.588647 0 56.67786 8.950859 63.553455 14.364149 5.820566 4.595668 6.875594 8.949836 7.080256 10.006912v190.404537z m369.777835-385.830439L527.592628 112.629173c-10.618848-9.174963-26.670429-9.174963-37.289278 0.204662L73.446267 479.681944c-8.544607 7.710612-11.67797 20.018939-7.506974 30.844495 3.966335 10.82044 14.588253 18.105357 26.264177 18.105357h58.734706v288.340057c-1.24127 10.191106-3.112897 46.874587 20.629853 73.951269 10.842952 12.491499 31.247678 27.100218 66.669422 27.100218h527.486716l4.15053 0.202615c12.71458 0 43.535539-2.52245 67.705008-24.799826 13.550621-12.512988 29.579689-35.622312 29.579689-75.823919V527.410991l65.225537-1.893116c11.656481-0.425695 21.850657-7.709589 25.814945-18.534122 3.967358-10.819416 0.833995-23.131837-8.116864-30.637788z" p-id="30159" fill="#ff0066"></path></svg>