<?xml version="1.0" standalone="no"?><!DOCTYPE svg PUBLIC "-//W3C//DTD SVG 1.1//EN" "http://www.w3.org/Graphics/SVG/1.1/DTD/svg11.dtd"><svg t="1513318069313" class="icon" style="" viewBox="0 0 1027 1024" version="1.1" xmlns="http://www.w3.org/2000/svg" p-id="2645" xmlns:xlink="http://www.w3.org/1999/xlink" width="200.5859375" height="200"><defs><style type="text/css"></style></defs><path d="M288 1024c-249.6-108.8-313.6-217.6-275.2-364.8 25.6-108.8 128-192 140.8-300.8C192 416 192 460.8 198.4 518.4 320 396.8 448 236.8 422.4 89.6c0 0 307.2 172.8 326.4 403.2 25.6-44.8 64-211.2 38.4-256 83.2 51.2 544 505.6-89.6 787.2 121.6-185.6 32-435.2-172.8-550.4 12.8 51.2-6.4 179.2-96 262.4C448 652.8 396.8 569.6 396.8 569.6s-19.2 102.4-83.2 179.2C256 819.2 211.2 896 288 1024z" p-id="2646" fill="#ff0066"></path></svg>