<?xml version="1.0" standalone="no"?><!DOCTYPE svg PUBLIC "-//W3C//DTD SVG 1.1//EN" "http://www.w3.org/Graphics/SVG/1.1/DTD/svg11.dtd"><svg t="1515398764775" class="icon" style="" viewBox="0 0 1024 1024" version="1.1" xmlns="http://www.w3.org/2000/svg" p-id="2336" xmlns:xlink="http://www.w3.org/1999/xlink" width="128" height="128"><defs><style type="text/css"></style></defs><path d="M512 437.894737c51.705263 0 93.776842 42.307368 93.776842 94.315789 0 52.008421-42.064842 94.315789-93.776842 94.315789-51.705263 0-93.770105-42.307368-93.770105-94.315789C418.223158 480.202105 460.294737 437.894737 512 437.894737M512 424.421053c-59.533474 0-107.789474 48.256-107.789474 107.789474 0 59.533474 48.256 107.789474 107.789474 107.789474s107.789474-48.256 107.789474-107.789474C619.789474 472.677053 571.526737 424.421053 512 424.421053L512 424.421053z" p-id="2337" fill="#2c2c2c"></path><path d="M602.846316 323.368421l21.477053 52.439579L627.745684 384l9.054316 0 81.684211 0c15.838316 0 29.305263 12.847158 29.305263 29.305263l0 256.552421c0 16.458105-13.466947 30.773895-29.305263 30.773895L304.357053 700.631579C288.518737 700.631579 276.210526 686.315789 276.210526 669.857684L276.210526 413.305263c0-16.458105 12.308211-29.305263 28.146526-29.305263l83.456 0 9.054316 0 3.422316-8.192L421.76 323.368421 599.578947 323.368421M611.900632 309.894737 412.712421 309.894737l-24.899368 60.631579L304.357053 370.526316C281.047579 370.526316 262.736842 389.382737 262.736842 413.305263l0 256.552421c0 23.929263 18.310737 44.247579 41.620211 44.247579l414.120421 0c23.309474 0 42.778947-20.318316 42.778947-44.247579L761.256421 413.305263c0-23.929263-19.476211-42.778947-42.778947-42.778947L636.8 370.526316 611.900632 309.894737 611.900632 309.894737z" p-id="2338" fill="#2c2c2c"></path><path d="M1024 0l-40.421053 0 0 13.473684 40.421053 0L1024 0 1024 0zM943.157895 0l-40.421053 0 0 13.473684 40.421053 0L943.157895 0 943.157895 0zM862.315789 0l-40.421053 0 0 13.473684 40.421053 0L862.315789 0 862.315789 0zM781.473684 0l-40.421053 0 0 13.473684 40.421053 0L781.473684 0 781.473684 0zM700.631579 0l-40.421053 0 0 13.473684 40.421053 0L700.631579 0 700.631579 0zM619.789474 0l-40.421053 0 0 13.473684 40.421053 0L619.789474 0 619.789474 0zM538.947368 0l-40.421053 0 0 13.473684 40.421053 0L538.947368 0 538.947368 0zM458.105263 0l-40.421053 0 0 13.473684 40.421053 0L458.105263 0 458.105263 0zM377.263158 0l-40.421053 0 0 13.473684 40.421053 0L377.263158 0 377.263158 0zM296.421053 0l-40.421053 0 0 13.473684 40.421053 0L296.421053 0 296.421053 0zM215.578947 0l-40.421053 0 0 13.473684 40.421053 0L215.578947 0 215.578947 0zM134.736842 0l-40.421053 0 0 13.473684 40.421053 0L134.736842 0 134.736842 0zM53.894737 0 13.473684 0l0 13.473684 40.421053 0L53.894737 0 53.894737 0zM13.473684 26.947368 0 26.947368l0 40.421053 13.473684 0L13.473684 26.947368 13.473684 26.947368zM13.473684 107.789474 0 107.789474l0 40.421053 13.473684 0L13.473684 107.789474 13.473684 107.789474zM13.473684 188.631579 0 188.631579l0 40.421053 13.473684 0L13.473684 188.631579 13.473684 188.631579zM13.473684 269.473684 0 269.473684l0 40.421053 13.473684 0L13.473684 269.473684 13.473684 269.473684zM13.473684 350.315789 0 350.315789l0 40.421053 13.473684 0L13.473684 350.315789 13.473684 350.315789zM13.473684 431.157895 0 431.157895l0 40.421053 13.473684 0L13.473684 431.157895 13.473684 431.157895zM13.473684 512 0 512l0 40.421053 13.473684 0L13.473684 512 13.473684 512zM13.473684 592.842105 0 592.842105l0 40.421053 13.473684 0L13.473684 592.842105 13.473684 592.842105zM13.473684 673.684211 0 673.684211l0 40.421053 13.473684 0L13.473684 673.684211 13.473684 673.684211zM13.473684 754.526316 0 754.526316l0 40.421053 13.473684 0L13.473684 754.526316 13.473684 754.526316zM13.473684 835.368421 0 835.368421l0 40.421053 13.473684 0L13.473684 835.368421 13.473684 835.368421zM13.473684 916.210526 0 916.210526l0 40.421053 13.473684 0L13.473684 916.210526 13.473684 916.210526zM13.473684 997.052632 0 997.052632l0 26.947368 13.473684 0 0 0 0 0 0 0L13.473684 997.052632 13.473684 997.052632zM94.315789 1010.526316 53.894737 1010.526316l0 13.473684 40.421053 0L94.315789 1010.526316 94.315789 1010.526316zM175.157895 1010.526316l-40.421053 0 0 13.473684 40.421053 0L175.157895 1010.526316 175.157895 1010.526316zM256 1010.526316l-40.421053 0 0 13.473684 40.421053 0L256 1010.526316 256 1010.526316zM336.842105 1010.526316l-40.421053 0 0 13.473684 40.421053 0L336.842105 1010.526316 336.842105 1010.526316zM417.684211 1010.526316l-40.421053 0 0 13.473684 40.421053 0L417.684211 1010.526316 417.684211 1010.526316zM498.526316 1010.526316l-40.421053 0 0 13.473684 40.421053 0L498.526316 1010.526316 498.526316 1010.526316zM579.368421 1010.526316l-40.421053 0 0 13.473684 40.421053 0L579.368421 1010.526316 579.368421 1010.526316zM660.210526 1010.526316l-40.421053 0 0 13.473684 40.421053 0L660.210526 1010.526316 660.210526 1010.526316zM741.052632 1010.526316l-40.421053 0 0 13.473684 40.421053 0L741.052632 1010.526316 741.052632 1010.526316zM821.894737 1010.526316l-40.421053 0 0 13.473684 40.421053 0L821.894737 1010.526316 821.894737 1010.526316zM902.736842 1010.526316l-40.421053 0 0 13.473684 40.421053 0L902.736842 1010.526316 902.736842 1010.526316zM983.578947 1010.526316l-40.421053 0 0 13.473684 40.421053 0L983.578947 1010.526316 983.578947 1010.526316zM1010.526316 983.578947l0 40.421053 13.473684 0 0-40.421053 0 0L1010.526316 983.578947 1010.526316 983.578947zM1024 902.736842l-13.473684 0 0 40.421053 13.473684 0L1024 902.736842 1024 902.736842zM1024 821.894737l-13.473684 0 0 40.421053 13.473684 0L1024 821.894737 1024 821.894737zM1024 741.052632l-13.473684 0 0 40.421053 13.473684 0L1024 741.052632 1024 741.052632zM1024 660.210526l-13.473684 0 0 40.421053 13.473684 0L1024 660.210526 1024 660.210526zM1024 579.368421l-13.473684 0 0 40.421053 13.473684 0L1024 579.368421 1024 579.368421zM1024 498.526316l-13.473684 0 0 40.421053 13.473684 0L1024 498.526316 1024 498.526316zM1024 417.684211l-13.473684 0 0 40.421053 13.473684 0L1024 417.684211 1024 417.684211zM1024 336.842105l-13.473684 0 0 40.421053 13.473684 0L1024 336.842105 1024 336.842105zM1024 256l-13.473684 0 0 40.421053 13.473684 0L1024 256 1024 256zM1024 175.157895l-13.473684 0 0 40.421053 13.473684 0L1024 175.157895 1024 175.157895zM1024 94.315789l-13.473684 0 0 40.421053 13.473684 0L1024 94.315789 1024 94.315789zM1024 13.473684l-13.473684 0 0 40.421053 13.473684 0L1024 13.473684 1024 13.473684z" p-id="2339" fill="#2c2c2c"></path></svg>