<?xml version="1.0" standalone="no"?><!DOCTYPE svg PUBLIC "-//W3C//DTD SVG 1.1//EN" "http://www.w3.org/Graphics/SVG/1.1/DTD/svg11.dtd"><svg t="1512956371044" class="icon" style="" viewBox="0 0 1024 1024" version="1.1" xmlns="http://www.w3.org/2000/svg" p-id="9421" xmlns:xlink="http://www.w3.org/1999/xlink" width="200" height="200"><defs><style type="text/css"></style></defs><path d="M749.604 181.033C686.14 117.563 601.755 82.614 512 82.614c-89.754 0-174.137 34.949-237.606 98.419-63.463 63.465-98.414 147.849-98.414 237.604 0 69.375 20.973 135.975 60.655 192.602 33.174 47.348 77.304 84.898 128.739 109.818l-52.979 180.258c-4.87 16.564 4.607 33.926 21.163 38.793 16.566 4.871 33.928-4.609 38.796-21.17l68.904-234.443-26.951-10.311c-51.173-19.572-94.908-53.742-126.493-98.807-32.278-46.066-49.343-100.263-49.343-156.74 0-73.059 28.453-141.752 80.117-193.407C370.25 173.565 438.941 145.112 512 145.112c73.062 0 141.753 28.454 193.415 80.118 51.662 51.661 80.109 120.348 80.109 193.407 0 56.477-17.059 110.674-49.336 156.74-31.586 45.064-75.326 79.234-126.494 98.807l-26.951 10.311 68.906 234.443c3.998 13.621 16.455 22.447 29.961 22.447 2.92 0 5.889-0.412 8.826-1.277 16.557-4.867 26.033-22.229 21.17-38.793l-52.979-180.258c51.436-24.92 95.564-62.471 128.74-109.818 39.682-56.627 60.654-123.226 60.654-192.602 0.001-89.755-34.95-174.138-98.417-237.604m0 0zM668.362 478.238zM93.776 624.531c-19.592-27.961-29.943-60.859-29.943-95.145 0-55.071 27.244-106.465 72.869-137.464 14.275-9.696 17.98-29.132 8.283-43.407-9.695-14.276-29.132-17.984-43.408-8.286C38.806 382.876 1.333 453.594 1.333 529.387c0 47.188 14.269 92.484 41.263 131.012 20.498 29.246 47.14 52.998 78.073 69.813L62.141 899.945c-5.628 16.311 3.04 34.098 19.351 39.723a31.047 31.047 0 0 0 10.186 1.717c12.964 0 25.08-8.129 29.545-21.07l77.584-224.984-28.229-10.799c-31.065-11.886-57.622-32.634-76.802-60.001m0 0zM981.405 660.393c26.994-38.521 41.262-83.818 41.262-131.006 0-75.34-37.119-145.807-99.295-188.512-14.227-9.77-33.682-6.156-43.449 8.07-9.77 14.226-6.158 33.68 8.068 43.45 45.197 31.041 72.18 82.25 72.18 136.992 0 34.285-10.354 67.184-29.943 95.145-19.18 27.367-45.742 48.115-76.805 60l-28.227 10.799 77.584 224.984c4.465 12.941 16.58 21.07 29.545 21.07 3.371 0 6.813-0.553 10.186-1.717 16.313-5.625 24.979-23.412 19.352-39.723l-58.529-169.74c30.935-16.809 57.573-40.56 78.071-69.812m0 0z" p-id="9422" fill="#999999"></path></svg>