<?xml version="1.0" standalone="no"?><!DOCTYPE svg PUBLIC "-//W3C//DTD SVG 1.1//EN" "http://www.w3.org/Graphics/SVG/1.1/DTD/svg11.dtd"><svg t="1512956577480" class="icon" style="" viewBox="0 0 1024 1024" version="1.1" xmlns="http://www.w3.org/2000/svg" p-id="15576" xmlns:xlink="http://www.w3.org/1999/xlink" width="200" height="200"><defs><style type="text/css"></style></defs><path d="M867.630545 448.768c-15.755636 0-27.368727 12.8-27.368727 28.462545v376.087273c0 37.445818-28.997818 69.352727-66.466909 69.352727H182.690909c-37.445818 0-80.989091-31.906909-80.989091-69.352727V261.003636c0-37.538909 43.543273-77.521455 80.989091-77.521454h318.324364c15.755636 0 28.462545-11.659636 28.462545-27.438546 0-15.732364-12.706909-27.368727-28.462545-27.368727H182.690909c-74.775273 0-135.749818 57.227636-135.749818 132.305455v592.314181C46.941091 928.325818 107.892364 977.454545 182.690909 977.454545h591.104c74.914909 0 121.204364-49.128727 121.204364-124.136727v-376.087273c0-15.662545-11.613091-28.462545-27.368728-28.462545zM952.413091 166.865455l-96.488727-96.488728c-31.650909-31.790545-87.412364-31.790545-119.063273 0l-78.754909 92.625455-419.677091 402.152727-27.717818 240.989091 13.358545 11.636364 234.565818-32 401.268364-420.561455 92.578909-75.589818c32.768-32.884364 32.768-89.879273-0.069818-122.763636zM277.643636 750.592l6.865455-112.756364 104.029091 104.029091-110.894546 8.727273z m161.024-38.097455l-127.255272-127.32509 375.156363-373.597091 124.951273 125.090909-372.852364 375.831272z m474.065455-466.036363l-55.924364 55.947636-136.168727-136.238545 55.854545-55.994182c5.329455-5.329455 12.381091-8.192 19.851637-8.192 7.610182 0 14.592 2.885818 19.898182 8.192l96.372363 96.465454a28.16 28.16 0 0 1 0.116364 39.819637z" p-id="15577" fill="#999999"></path></svg>