<?xml version="1.0" standalone="no"?><!DOCTYPE svg PUBLIC "-//W3C//DTD SVG 1.1//EN" "http://www.w3.org/Graphics/SVG/1.1/DTD/svg11.dtd"><svg t="1512954742733" class="icon" style="" viewBox="0 0 1024 1024" version="1.1" xmlns="http://www.w3.org/2000/svg" p-id="4209" xmlns:xlink="http://www.w3.org/1999/xlink" width="200" height="200"><defs><style type="text/css"></style></defs><path d="M511.488 714.752z" fill="#ff0066" p-id="4210"></path><path d="M913.408 805.888c-3.072-20.48-11.776-36.864-25.088-47.616-13.824-10.752-29.696-18.944-48.128-25.088-17.92-6.144-103.936-35.84-123.392-40.96-19.456-5.12-36.864-12.8-51.2-22.016-12.288-7.168-20.992-14.336-27.648-20.992-6.656-7.168-11.264-13.824-13.824-20.48-2.56-6.656-4.096-13.824-4.096-20.992s0.512-15.872 1.024-24.064c1.024-13.824 5.632-23.552 13.312-31.232s16.384-15.36 25.6-23.04c4.608-4.096 8.704-9.728 12.288-16.384l9.216-21.504c3.072-8.704 5.632-16.896 8.704-26.112 4.096-1.024 8.192-3.072 12.288-6.144 3.584-3.072 7.168-7.168 11.264-12.288 3.584-5.12 7.168-12.8 10.24-22.016 3.072-9.216 4.096-17.92 3.072-25.6-0.512-8.192-2.048-14.848-4.608-19.968-2.048-6.656-5.632-12.288-10.24-17.92 0.512-20.992-0.512-43.008-3.584-64.512-2.048-17.92-6.144-37.376-12.288-57.856-5.632-20.48-14.848-39.424-25.6-55.296-11.264-15.36-23.04-27.648-36.352-37.888-13.312-10.24-26.624-17.92-40.448-23.552-13.824-5.632-27.136-9.728-41.472-12.288-13.824-2.048-27.136-3.584-40.448-3.584h-5.12c-13.312 0-26.624 1.536-40.448 3.584-14.336 2.56-27.648 6.656-41.472 12.288-13.824 5.632-27.136 13.824-40.448 23.552-13.312 10.24-25.088 22.528-36.352 37.888-11.264 16.384-19.968 34.816-25.6 55.296-6.144 20.48-10.24 39.936-12.288 57.856-3.072 21.504-4.096 43.52-3.584 64.512-4.608 6.144-8.192 11.776-10.24 17.92-2.56 5.632-4.096 12.288-4.608 19.968-1.024 7.68 0 16.384 3.072 25.6 3.072 9.728 6.656 16.896 10.24 22.016 4.096 5.12 7.68 9.216 11.264 12.288 4.096 3.072 8.192 5.12 12.288 6.144 3.072 9.216 5.632 17.408 8.704 26.112 3.072 7.68 6.144 14.848 9.216 21.504 3.584 7.168 7.68 12.8 12.288 16.384 9.728 8.192 17.92 15.872 25.6 23.04 7.68 7.68 12.288 17.408 13.312 31.232 0.512 8.704 1.024 16.384 1.024 24.064s-1.536 14.848-4.096 20.992c-2.56 7.168-7.168 13.824-13.824 20.48-6.656 7.168-15.872 14.336-27.648 20.992-14.848 9.728-31.744 16.896-51.2 22.016s-105.472 34.816-123.392 40.96c-17.92 6.144-34.304 14.848-48.128 25.088-13.824 10.752-22.016 26.624-25.088 47.616-5.632 36.352-7.168 41.984-4.096 65.536 3.072 23.04 7.68 36.864 14.336 41.472 5.12 4.096 19.456 8.704 44.544 14.336 23.552 5.632 171.52 33.28 344.576 34.304h10.24c173.056-1.024 321.024-28.672 344.576-34.304 24.576-5.632 39.424-10.24 44.544-14.336 6.656-4.608 11.264-17.92 14.336-41.472 1.536-23.552 0-29.184-5.12-65.536z" fill="#ff0066" p-id="4211"></path><path d="M285.696 415.232V240.128c-2.56 0-5.12 0-7.168 0.512 39.424-86.016 128-145.92 230.912-145.92s190.976 59.904 230.912 145.92c-2.56 0-4.608-0.512-7.168-0.512v175.104c49.152 0 89.6-38.912 89.6-87.552 0-32.768-18.432-61.44-45.568-76.288-38.4-108.032-143.36-185.856-267.264-185.856-123.904 0-228.864 77.824-267.264 185.856-27.136 14.848-45.568 43.52-45.568 76.288-1.024 48.128 38.912 87.552 88.576 87.552z" fill="#ff0066" p-id="4212"></path></svg>