<?xml version="1.0" standalone="no"?><!DOCTYPE svg PUBLIC "-//W3C//DTD SVG 1.1//EN" "http://www.w3.org/Graphics/SVG/1.1/DTD/svg11.dtd"><svg t="1514541684092" class="icon" style="" viewBox="0 0 1024 1024" version="1.1" xmlns="http://www.w3.org/2000/svg" p-id="1815" xmlns:xlink="http://www.w3.org/1999/xlink" width="128" height="128"><defs><style type="text/css"></style></defs><path d="M870.262784 835.412992s0 52.76672-52.769792 52.76672H184.275968s-52.765696 0-52.765696-52.76672v-422.12352c0-52.768768 52.76672-52.768768 52.76672-52.768768h158.304256l52.769792-52.763648H131.510272c-29.939712 0-52.769792 23.49568-52.769792 52.763648l-0.1536 527.55456c0 29.270016 24.267776 53.07392 54.207488 53.07392l737.467392-0.200704c29.883392 0 52.765696-23.498752 52.765696-52.767744V518.818816l-52.76672 52.765696v263.82848z m99.453952-476.797952L703.451136 152.809472c-4.892672-3.762176-11.385856-4.379648-16.897024-1.750016-5.46304 2.674688-8.97024 8.190976-8.97024 14.271488v123.255808c-101.055488 3.042304-181.95456 41.535488-240.59904 101.926912-104.553472 107.43808-94.298112 264.6528-94.04416 271.24736 0.258048 8.452096 7.11168 15.148032 15.617024 15.357952h0.356352c8.347648 0 15.305728-6.391808 15.976448-14.688256 0.617472-8.605696 13.60384-207.663104 302.6944-214.72256v129.29024c0 6.028288 3.5072 11.594752 8.97024 14.270464a16.063488 16.063488 0 0 0 16.897024-1.75104l266.2656-205.80352a15.92832 15.92832 0 0 0 6.180864-12.57472c-0.001024-4.849664-2.31936-9.48224-6.181888-12.524544zM709.58592 544.479232v-112.896c0-8.759296-7.160832-15.926272-16.0256-15.926272-170.364928 0-253.638656 62.609408-300.22144 124.443648 12.986368-42.303488 29.063168-88.889344 66.681856-127.531008 55.4496-57.04192 134.086656-92.444672 233.540608-92.444672 8.863744 0 16.024576-7.110656 16.024576-15.870976V197.895168L933.79584 371.139584 709.58592 544.479232z" fill="#ff0066" p-id="1816"></path></svg>