<?xml version="1.0" standalone="no"?><!DOCTYPE svg PUBLIC "-//W3C//DTD SVG 1.1//EN" "http://www.w3.org/Graphics/SVG/1.1/DTD/svg11.dtd"><svg t="1512956272217" class="icon" style="" viewBox="0 0 1024 1024" version="1.1" xmlns="http://www.w3.org/2000/svg" p-id="6204" xmlns:xlink="http://www.w3.org/1999/xlink" width="200" height="200"><defs><style type="text/css"></style></defs><path d="M793.6 179.2l-51.2 0c-23.8592-66.9696-97.6896-128-172.8512-128L224.0512 51.2C148.48 51.2 63.1808 122.88 51.2 223.9488l0 576C51.2 895.488 128.512 972.8 224.0512 972.8l576 0c95.4368 0 172.7488-77.312 172.7488-172.7488l0-460.8C972.8 243.712 889.0368 179.2 793.6 179.2zM230.4 102.4l358.4 0c42.5984 0 56.832 42.496 76.8 76.8L230.4 179.2c-43.7248 0-89.7024 3.9936-120.1152 30.8224C117.1456 153.088 171.6224 102.4 230.4 102.4zM921.6 640c0 15.872-9.6256 25.6-25.6 25.6L588.8 665.6c-15.9744 0-25.6-9.728-25.6-25.6L563.2 460.8c0-15.9744 9.6256-51.2 25.6-51.2l307.2 0c15.9744 0 25.6 9.6256 25.6 25.6L921.6 640zM921.6 358.4 563.2 358.4c-31.744 0-51.2 35.4304-51.2 67.1744l0 230.4c0 31.744 25.8048 57.5488 57.5488 57.5488L921.6 716.8l0 76.8c0 63.5904-64.4096 128-128 128L230.4 921.6c-63.5904 0-128-64.4096-128-128L102.4 332.8c0-63.5904 64.4096-102.4 128-102.4l563.2 0c63.5904 0 128 38.8096 128 102.4L921.6 358.4zM614.4 563.2l76.8 0 0-51.2-76.8 0L614.4 563.2z" p-id="6205" fill="#999999"></path></svg>